<svg version="1.1" viewBox="0.0 0.0 960.0 540.0" fill="none" stroke="none" stroke-linecap="square" stroke-miterlimit="10" xmlns:xlink="http://www.w3.org/1999/xlink" xmlns="http://www.w3.org/2000/svg"><clipPath id="g5977b58cb7_1_40.0"><path d="m0 0l960.0 0l0 540.0l-960.0 0l0 -540.0z" clip-rule="nonzero"/></clipPath><g clip-path="url(#g5977b58cb7_1_40.0)"><path fill="#000000" fill-opacity="0.0" d="m0 0l960.0 0l0 540.0l-960.0 0z" fill-rule="evenodd"/><defs><radialGradient id="g5977b58cb7_1_40.1" gradientUnits="userSpaceOnUse" gradientTransform="matrix(18.368903210342165 0.0 0.0 18.368903210342165 0.0 0.0)" spreadMethod="pad" cx="26.131119234693752" cy="14.698754569515236" fx="26.131119234693752" fy="14.698754569515236" r="18.36890411376953"><stop offset="0.0" stop-color="#f3f3f3"/><stop offset="1.0" stop-color="#ffffff"/></radialGradient></defs><path fill="url(#g5977b58cb7_1_40.1)" d="m186.3307 270.0l0 0c0 -91.766235 131.48024 -166.15747 293.6693 -166.15747l0 0c162.18909 0 293.6693 74.39124 293.6693 166.15747l0 0c0 91.766235 -131.48022 166.15747 -293.6693 166.15747l0 0c-162.18906 0 -293.6693 -74.391235 -293.6693 -166.15747z" fill-rule="evenodd"/><defs><radialGradient id="g5977b58cb7_1_40.2" gradientUnits="userSpaceOnUse" gradientTransform="matrix(12.642326618392497 0.0 0.0 12.642326618392497 0.0 0.0)" spreadMethod="pad" cx="37.96754210915196" cy="21.357167787520744" fx="37.96754210915196" fy="21.357167787520744" r="12.642326354980469"><stop offset="0.0" stop-color="#999999"/><stop offset="1.0" stop-color="#d9d9d9"/></radialGradient></defs><path fill="url(#g5977b58cb7_1_40.2)" d="m366.92722 270.0043l0 0c0 -62.386444 50.623535 -112.96065 113.07086 -112.96065l0 0c29.98825 0 58.74826 11.901184 79.953156 33.085403c21.204895 21.184235 33.117676 49.916214 33.117676 79.875244l0 0c0 62.386414 -50.623535 112.96063 -113.07083 112.96063l0 0c-62.447327 0 -113.07086 -50.57422 -113.07086 -112.96063z" fill-rule="evenodd"/></g></svg>