<svg version="1.1" viewBox="0.0 0.0 960.0 540.0" fill="none" stroke="none" stroke-linecap="square" stroke-miterlimit="10" xmlns:xlink="http://www.w3.org/1999/xlink" xmlns="http://www.w3.org/2000/svg"><clipPath id="g5977b58cb7_1_48.0"><path d="m0 0l960.0 0l0 540.0l-960.0 0l0 -540.0z" clip-rule="nonzero"/></clipPath><g clip-path="url(#g5977b58cb7_1_48.0)"><path fill="#000000" fill-opacity="0.0" d="m0 0l960.0 0l0 540.0l-960.0 0z" fill-rule="evenodd"/><defs><radialGradient id="g5977b58cb7_1_48.1" gradientUnits="userSpaceOnUse" gradientTransform="matrix(18.514763430706132 0.0 0.0 18.514763430706132 0.0 0.0)" spreadMethod="pad" cx="25.92525698729348" cy="14.582957055352583" fx="25.92525698729348" fy="14.582957055352583" r="18.51476287841797"><stop offset="0.0" stop-color="#000000"/><stop offset="1.0" stop-color="#999999"/></radialGradient></defs><path fill="url(#g5977b58cb7_1_48.1)" d="m237.6063 270.0l0 0c0 -133.87035 108.52338 -242.3937 242.3937 -242.3937l0 0c64.286804 0 125.94061 25.537836 171.39825 70.99547c45.45764 45.457634 70.99542 107.11143 70.99542 171.39822l0 0c0 133.87033 -108.523315 242.39368 -242.39368 242.39368l0 0c-133.87033 0 -242.3937 -108.523346 -242.3937 -242.39368z" fill-rule="evenodd"/></g></svg>