<svg version="1.1" viewBox="0.0 0.0 960.0 540.0" fill="none" stroke="none" stroke-linecap="square" stroke-miterlimit="10" xmlns:xlink="http://www.w3.org/1999/xlink" xmlns="http://www.w3.org/2000/svg"><clipPath id="g5977b58cb7_1_4.0"><path d="m0 0l960.0 0l0 540.0l-960.0 0l0 -540.0z" clip-rule="nonzero"/></clipPath><g clip-path="url(#g5977b58cb7_1_4.0)"><path fill="#000000" fill-opacity="0.0" d="m0 0l960.0 0l0 540.0l-960.0 0z" fill-rule="evenodd"/><path fill="#000000" fill-opacity="0.0" d="m240.07874 151.88382l0 0c0 -11.89476 9.642609 -21.537369 21.537384 -21.537369l436.7678 0c5.712036 0 11.190186 2.2691193 15.229187 6.3081512c4.0390625 4.0390472 6.3081665 9.517166 6.3081665 15.229218l0 236.23236c0 11.894745 -9.642639 21.537354 -21.537354 21.537354l-436.7678 0c-11.894775 0 -21.537384 -9.642609 -21.537384 -21.537354z" fill-rule="evenodd"/><path fill="#000000" fill-opacity="0.0" d="m480.0 120.0l0 300.0" fill-rule="evenodd"/><path stroke="#999999" stroke-width="3.0" stroke-linejoin="round" stroke-linecap="butt" d="m480.0 120.0l0 300.0" fill-rule="evenodd"/><path fill="#b45f06" d="m709.9869 199.85826l10.078735 0l0 140.28346l-10.078735 0z" fill-rule="evenodd"/><path fill="#b45f06" d="m239.93439 199.85826l10.078735 0l0 140.28346l-10.078735 0z" fill-rule="evenodd"/><path fill="#000000" fill-opacity="0.0" d="m239.68634 199.70088l0 0c30.145447 -0.042617798 58.025604 13.331955 73.12787 35.080673c15.102264 21.748749 15.129547 48.56357 0.07156372 70.33362c-15.057983 21.77005 -42.91089 35.18405 -73.05638 35.18405l0 -70.299225z" fill-rule="evenodd"/><path fill="#000000" fill-opacity="0.0" d="m239.68634 199.70088l0 0c30.145447 -0.042617798 58.025604 13.331955 73.12787 35.080673c15.102264 21.748749 15.129547 48.56357 0.07156372 70.33362c-15.057983 21.77005 -42.91089 35.18405 -73.05638 35.18405" fill-rule="evenodd"/><path stroke="#999999" stroke-width="4.0" stroke-linejoin="round" stroke-linecap="butt" d="m239.68634 199.70088l0 0c30.145447 -0.042617798 58.025604 13.331955 73.12787 35.080673c15.102264 21.748749 15.129547 48.56357 0.07156372 70.33362c-15.057983 21.77005 -42.91089 35.18405 -73.05638 35.18405" fill-rule="evenodd"/><path fill="#b45f06" d="m720.0656 199.85826l-10.078735 0l0 140.28346l10.078735 0z" fill-rule="evenodd"/><path fill="#000000" fill-opacity="0.0" d="m720.31366 199.70088l0 0c-30.145447 -0.042617798 -58.025574 13.331955 -73.12787 35.080673c-15.102234 21.748749 -15.129517 48.56357 -0.0715332 70.33362c15.057983 21.77005 42.910828 35.18405 73.056335 35.18405l0 -70.299225z" fill-rule="evenodd"/><path fill="#000000" fill-opacity="0.0" d="m720.31366 199.70088l0 0c-30.145447 -0.042617798 -58.025574 13.331955 -73.12787 35.080673c-15.102234 21.748749 -15.129517 48.56357 -0.0715332 70.33362c15.057983 21.77005 42.910828 35.18405 73.056335 35.18405" fill-rule="evenodd"/><path stroke="#999999" stroke-width="4.0" stroke-linejoin="round" stroke-linecap="butt" d="m720.31366 199.70088l0 0c-30.145447 -0.042617798 -58.025574 13.331955 -73.12787 35.080673c-15.102234 21.748749 -15.129517 48.56357 -0.0715332 70.33362c15.057983 21.77005 42.910828 35.18405 73.056335 35.18405" fill-rule="evenodd"/></g></svg>